<?xml version="1.0" encoding="utf-8"?>
<!-- Generator: Adobe Illustrator 26.3.1, SVG Export Plug-In . SVG Version: 6.00 Build 0)  -->
<svg version="1.1" id="Слой_1" xmlns="http://www.w3.org/2000/svg" xmlns:xlink="http://www.w3.org/1999/xlink" x="0px" y="0px"
	 viewBox="0 0 511 511" style="enable-background:new 0 0 511 511;" xml:space="preserve">
<style type="text/css">
	.st0{fill:#004285;}
	.st1{fill:#00C8F2;stroke:#F2F2F2;stroke-miterlimit:10;}
	.st2{fill:#00C8F2;stroke:#00C8F2;stroke-width:25;stroke-miterlimit:10;}
</style>
<path class="st0" d="M144.7,35h221.5C426.9,35,476,84.1,476,144.7v221.5c0,60.6-49.1,109.7-109.7,109.7H144.7
	C84.1,476,35,426.9,35,366.3V144.7C35,84.1,84.1,35,144.7,35z"/>
<path class="st1" d="M366.3,70c41.3,0.1,74.7,33.5,74.7,74.7v221.5c0,41.3-33.5,74.7-74.7,74.7H144.7c-41.3,0-74.7-33.5-74.7-74.7
	V144.7c0.1-41.3,33.5-74.7,74.7-74.7H366.3 M366.3,0H144.7C64.8,0,0,64.8,0,144.7v221.5C0,446.2,64.8,511,144.7,511h221.5
	c79.9,0,144.7-64.8,144.7-144.7V144.7C511,64.8,446.2,0,366.3,0z"/>
<path class="st2" d="M256.3,247.7L256.3,247.7c-15.1,0-27.4-12.2-27.4-27.4v-87.5c0-15.1,12.2-27.3,27.4-27.3l0,0
	c15.1,0,27.4,12.2,27.4,27.3v87.5C283.6,235.4,271.4,247.7,256.3,247.7z"/>
<path class="st2" d="M143,324.3h215.7c10.4,0,18.8,8.4,18.8,18.8l0,0c0,10.4-8.4,18.8-18.8,18.8H143c-10.4,0-18.8-8.4-18.8-18.8l0,0
	C124.2,332.6,132.6,324.3,143,324.3z"/>
</svg>
