<?xml version="1.0" encoding="utf-8"?>
<!-- Generator: Adobe Illustrator 26.3.1, SVG Export Plug-In . SVG Version: 6.00 Build 0)  -->
<svg version="1.1" id="Слой_1" xmlns="http://www.w3.org/2000/svg" xmlns:xlink="http://www.w3.org/1999/xlink" x="0px" y="0px"
	 viewBox="0 0 513.3 508.7" style="enable-background:new 0 0 513.3 508.7;" xml:space="preserve">
<style type="text/css">
	.st0{fill:#666666;stroke:#F2F2F2;stroke-width:70;stroke-miterlimit:10;}
	.st1{fill:#666666;stroke:#F2F2F2;stroke-width:25;stroke-miterlimit:10;}
</style>
<polygon class="st0" points="256.65,77.7 56.86,473.7 456.44,473.7 "/>
<path class="st1" d="M288.25,308.3L288.25,308.3c2.89,2.89,2.89,7.57,0,10.46l-50.35,50.35c-2.89,2.89-7.57,2.89-10.46,0l0,0
	c-2.89-2.89-2.89-7.57,0-10.46l50.35-50.35C280.67,305.41,285.36,305.41,288.25,308.3z"/>
<path class="st1" d="M227.01,308.08L227.01,308.08c2.89-2.89,7.57-2.89,10.46,0l50.35,50.35c2.89,2.89,2.89,7.57,0,10.46l0,0
	c-2.89,2.89-7.57,2.89-10.46,0l-50.35-50.35C224.12,315.65,224.12,310.96,227.01,308.08z"/>
</svg>
