<?xml version="1.0" encoding="utf-8"?>
<!-- Generator: Adobe Illustrator 26.3.1, SVG Export Plug-In . SVG Version: 6.00 Build 0)  -->
<svg version="1.1" id="Слой_1" xmlns="http://www.w3.org/2000/svg" xmlns:xlink="http://www.w3.org/1999/xlink" x="0px" y="0px"
	 viewBox="0 0 511 511" style="enable-background:new 0 0 511 511;" xml:space="preserve">
<style type="text/css">
	.st0{fill:#808080;}
	.st1{fill:#F2F2F2;stroke:#F2F2F2;stroke-miterlimit:10;}
	.st2{fill:#F2F2F2;stroke:#F2F2F2;stroke-width:25;stroke-miterlimit:10;}
</style>
<path class="st0" d="M144.74,35h221.52C426.87,35,476,84.13,476,144.74v221.52C476,426.87,426.87,476,366.26,476H144.74
	C84.13,476,35,426.87,35,366.26V144.74C35,84.13,84.13,35,144.74,35z"/>
<path class="st1" d="M366.26,70c41.26,0.05,74.69,33.48,74.74,74.74v221.52c-0.05,41.26-33.48,74.69-74.74,74.74H144.74
	c-41.26-0.05-74.69-33.48-74.74-74.74V144.74c0.05-41.26,33.48-74.69,74.74-74.74H366.26 M366.26,0H144.74C64.8,0,0,64.8,0,144.74
	v221.52C0,446.2,64.8,511,144.74,511h221.52C446.2,511,511,446.2,511,366.26V144.74C511,64.8,446.2,0,366.26,0z"/>
<path class="st2" d="M256.29,247.69L256.29,247.69c-15.1,0-27.35-12.24-27.35-27.35v-87.5c0-15.1,12.24-27.35,27.35-27.35l0,0
	c15.1,0,27.35,12.25,27.35,27.35v87.5C283.63,235.45,271.39,247.69,256.29,247.69z"/>
<path class="st2" d="M142.98,324.26h215.66c10.36,0,18.75,8.39,18.75,18.75l0,0c0,10.36-8.39,18.75-18.75,18.75H142.98
	c-10.36,0-18.75-8.39-18.75-18.75l0,0C124.23,332.65,132.62,324.26,142.98,324.26z"/>
</svg>
