<?xml version="1.0" encoding="UTF-8" standalone="no"?>
<!DOCTYPE svg PUBLIC "-//W3C//DTD SVG 1.1//EN" "http://www.w3.org/Graphics/SVG/1.1/DTD/svg11.dtd">
<svg width="100%" height="100%" viewBox="0 0 512 512" version="1.1" xmlns="http://www.w3.org/2000/svg" xmlns:xlink="http://www.w3.org/1999/xlink" xml:space="preserve" xmlns:serif="http://www.serif.com/" style="fill-rule:evenodd;clip-rule:evenodd;stroke-linejoin:round;stroke-miterlimit:2;">
    <g transform="matrix(1.357794,0,0,1.357794,-31.744285,95.618892)">
        <path d="M144.601,3.449C143.673,8.954 143.925,8.891 143.931,14.499C143.932,21.5 143.932,28.5 143.932,35.5C143.932,70.636 143.587,71.056 145.427,72.737C148.71,71.6 146.71,70.077 148.466,65.487C149.914,61.701 157.449,28.199 159.457,27.42C160.293,27.095 167.771,26.375 167.856,30.48C167.903,32.771 158.195,67.194 158.054,68.44C157.684,71.711 154.737,77.123 157.508,76.113C160,75.204 172.985,48.809 178.086,42.259C178.567,41.641 177.696,41.168 182.747,33.641C185.589,29.405 191.436,18.6 192.155,17.272C194.379,13.163 196.486,17.851 200.652,19.378C203.412,20.39 194.761,29.881 193.002,36.25C192.933,36.501 192.297,35.844 190.858,38.696C188.399,43.569 188.339,43.479 182.829,52.684C181.518,54.874 168.247,77.044 167.13,80.463C166.629,81.996 168.785,82.997 169.441,81.418C169.547,81.162 169.59,81.18 178.358,72.352C179.361,71.773 179.459,72.033 180.26,71.254C182.308,69.261 182.27,69.311 184.298,67.291C184.939,66.652 184.878,66.657 192.275,59.272C193.045,58.503 192.834,58.451 193.491,57.487C194.717,56.641 194.644,56.712 195.491,55.494C198.234,54.702 199.727,51.839 200.274,51.271C201.067,50.447 200.846,50.402 201.475,49.449C202.115,49.432 204.361,49.373 208.246,53.714C208.561,54.066 209.986,55.659 206.288,59.282C205.461,60.092 205.338,59.789 204.562,60.56C200.931,61.576 200.803,64.377 200.642,64.645C200.302,64.972 199.962,65.3 199.621,65.627C197.117,66.168 196.105,67.486 195.574,69.571C194.038,71.181 194.13,71.125 192.628,72.635C190.017,73.208 179.977,83.903 179.474,85.464C173.681,89.238 175.901,90.63 176.38,90.725C177.719,90.989 234.18,58.149 235.704,56.762C236.128,56.832 235.962,57.078 236.417,57.153C236.591,57.181 236.579,57.173 238.605,57.426C241.127,62.119 243.66,63.11 239.367,66.284C238.565,66.877 194.975,91.609 192.517,93.528C191.857,93.874 191.197,94.22 190.537,94.566C184.507,98.247 177.395,101.064 184.473,101.196C184.57,101.198 222.2,91.307 224.471,90.427C229.928,88.315 231.972,97.759 229.38,99.276C228.992,99.503 201.858,106.284 198.523,107.561C197.126,108.096 197.005,107.591 190.539,109.597C186.778,110.763 184.127,109.652 185.646,113.273C185.869,113.49 185.307,114.111 186.553,114.151C187.029,114.167 188.09,114.202 192.502,114.225C207.946,114.305 373.886,115.165 385.559,114.199C385.931,114.168 386.092,113.569 386.465,113.538C386.636,114.204 388.61,121.882 384.51,121.908C356.988,122.085 209.701,122.01 194.5,122.003C192.135,122.002 183.911,120.678 185.309,124.594C186.036,126.631 214.439,132.624 221.405,134.967C228.085,137.214 232.151,135.563 230.244,142.399C228.359,149.16 225.655,146.217 213.591,143.253C207.52,141.762 207.429,142.108 205.414,140.803C205.203,140.713 205.22,140.859 202.61,140.21C201.692,140.026 169.7,130.122 185.341,138.779C193.398,143.239 209.588,152.911 211.683,154.163C212.946,154.918 225.093,162.175 227.633,163.315C231.51,165.056 238.736,169.62 239.675,170.213C244.26,173.109 240.692,174.152 238.651,178.642C237.412,181.369 233.137,177.327 232.278,176.893C221.262,171.333 178.07,144.842 176.622,145.777C174.709,147.013 176.299,147.943 202.221,173.775C207.035,178.572 210.289,179.568 205.302,184.238C202.632,186.738 201.953,187.288 199.339,184.665C187.655,172.94 174.5,159.825 172.337,157.668C159.826,145.195 172.622,165.336 173.528,166.483C173.885,167.138 174.243,167.792 174.601,168.447C175.981,170.887 190.618,196.766 192.202,198.745C193.132,199.905 197.456,208.439 197.89,209.295C198.038,209.587 198.072,209.53 200.27,212.623C203.485,217.148 199.395,216.54 195.3,220.24C195.04,220.151 193.442,219.606 192.255,218.659C191.975,218.287 191.696,217.916 191.417,217.544C186.111,208.543 182.793,202.094 182.089,200.726C177.459,191.726 176.527,192.353 171.749,183.372C166.695,173.873 160.755,163.992 159.756,162.332C157.377,158.374 156.571,161.27 156.625,161.523C162.578,189.671 170.441,204.771 166.357,207.238C166.011,207.447 165.789,206.68 161.54,208.759C158.118,210.434 157.599,203.144 157.138,201.595C156.814,200.579 156.49,199.563 156.165,198.547C156.014,198.027 147.799,166.585 147.072,163.806C145.926,163.067 145.873,163.108 144.635,163.62C144.034,166.037 143.924,165.959 143.926,168.494C143.982,226.321 143.68,230.797 144.47,233.47C143.737,233.628 135.352,235.436 135.132,232.607C134.606,225.841 135.962,164.422 134.255,163.922C131.448,163.101 131.815,167.997 130.017,173.394C126.436,184.14 121.751,209.594 119.473,209.259C111.125,208.033 110.864,206.55 111.741,203.597C113.957,196.137 113.361,196.036 115.757,188.595C116.624,185.904 121.293,167.44 121.759,165.597C122.645,162.094 125.093,160.151 121.497,160.289C119.152,160.379 120.522,162.056 106.576,185.542C106.224,186.199 105.873,186.856 105.521,187.513C103.101,190.524 90.247,213.779 87.835,217.696C84.96,222.364 83.648,219.986 79.204,216.852C77.887,215.923 77.847,215.192 87.467,198.48C111.451,156.82 114.35,153.482 110.424,154.197C110.094,154.258 110.132,154.337 87.255,177.25C77.02,187.502 76.744,187.826 75.671,187.237C75.428,187.104 75.647,186.96 73.361,184.648C70.716,181.973 69.283,181.154 72.753,177.756C75.217,175.343 103.061,148.078 103.409,147.453C104.27,145.908 102.678,144.56 99.606,146.689C96.926,148.547 71.123,163.349 69.372,164.249C56.71,170.757 41.977,182.217 40.408,178.562C38.351,173.773 35.426,173.214 38.654,170.726C39.771,169.865 89.472,141.505 90.632,140.731C96.043,137.121 99.996,136.717 96.343,134.918C95.009,134.26 51.716,147.238 50.718,146.273C50.48,146.042 48.43,138.456 48.832,137.761C49.043,137.395 49.169,137.49 69.368,132.007C80.976,128.856 80.873,128.79 92.452,125.411C94.232,125.092 93.806,124.584 94.033,124.326C94.002,121.364 92.314,121.914 56.5,121.914C42.236,121.914 37.196,123.07 37.076,119.537C36.983,116.837 36.286,116.839 37.279,114.35C60.843,113.662 60.74,114.527 93.357,114.069C93.648,113.52 93.939,112.971 94.23,112.422C92.612,108.923 83.557,108.957 77.473,106.568C71.257,104.127 48.966,100.211 48.187,97.569C47.503,95.245 48.697,95.428 49.97,90.626C50.508,88.593 51.69,89.036 86.397,98.764C89.404,99.607 89.455,99.085 92.464,99.989C93.19,100.206 95.003,102.319 96.665,100.621C98.911,98.326 90.171,96.353 83.254,90.933C82.821,90.593 75.333,86.602 74.64,86.233C73.818,85.795 67.338,82.341 64.482,80.535C63.817,80.198 63.151,79.86 62.486,79.523C59.883,77.463 39.762,66.105 38.444,65.58C37.823,65.333 36.06,64.631 40.468,57.477C41.443,57.225 42.419,56.974 43.394,56.723C56.662,65.541 58.308,65.2 63.533,68.44C64.198,68.778 64.863,69.116 65.528,69.454C66.757,70.443 66.912,70.187 82.537,79.431C83.196,79.781 83.854,80.13 84.512,80.479C84.853,80.75 115.588,100.854 98.331,83.669C74.793,60.23 74.829,60.253 72.783,58.22C69.125,54.585 71.735,53.958 75.341,50.322C77.548,48.095 78.441,49.868 105.65,77.339C109.362,81.087 113.035,84.203 111.777,79.384C111.342,77.72 110.053,78.427 101.102,60.724C100.39,59.316 99.449,59.908 91.131,43.708C89.991,41.489 88.015,38.779 87.717,38.369C84.327,33.72 83.869,29.822 78.785,23.268C75.891,19.537 85.119,13.897 87.272,17.633C89.381,21.294 113.51,63.167 113.671,63.379C113.964,63.923 113.706,64.66 114,65.204C114,65.204 115.187,65.575 115.291,65.607C115.636,66.316 125.724,87.013 122.297,72.544C114.824,40.987 113.539,41.361 113.2,38.568C112.412,32.081 109.129,31.234 112.61,28.719C114.131,28.988 114.041,28.761 115.442,28.178C122.297,26.03 121.101,30.965 121.982,34.357C122.395,35.949 122.635,35.824 122.888,37.415C123.206,38.423 123.525,39.431 123.844,40.439C126.301,47.342 135.4,95.592 134.994,60.501C134.949,56.581 135.053,56.629 135.058,11.5C135.058,10.746 135.059,2.292 136.405,2.179C142.811,1.641 144.134,2.977 144.601,3.449Z" style="fill:white;fill-opacity:0.99;"/>
    </g>
</svg>
