<?xml version="1.0" encoding="UTF-8" standalone="no"?>
<!DOCTYPE svg PUBLIC "-//W3C//DTD SVG 1.1//EN" "http://www.w3.org/Graphics/SVG/1.1/DTD/svg11.dtd">
<svg width="100%" height="100%" viewBox="0 0 512 512" version="1.1" xmlns="http://www.w3.org/2000/svg" xmlns:xlink="http://www.w3.org/1999/xlink" xml:space="preserve" xmlns:serif="http://www.serif.com/" style="fill-rule:evenodd;clip-rule:evenodd;stroke-linecap:round;stroke-linejoin:round;stroke-miterlimit:1.5;">
    <g transform="matrix(1.22488,0,0,1.22488,-57.569378,-57.569378)">
        <path d="M256,47C371.35,47 465,140.65 465,256C465,371.35 371.35,465 256,465C140.65,465 47,371.35 47,256C47,140.65 140.65,47 256,47ZM256,139.384C320.362,139.384 372.616,191.638 372.616,256C372.616,320.362 320.362,372.616 256,372.616C191.638,372.616 139.384,320.362 139.384,256C139.384,191.638 191.638,139.384 256,139.384Z" style="fill:rgb(235,235,235);fill-opacity:0;"/>
        <path d="M256,47C371.35,47 465,140.65 465,256C465,371.35 371.35,465 256,465C140.65,465 47,371.35 47,256C47,140.65 140.65,47 256,47ZM256,71.832C154.355,71.832 71.832,154.355 71.832,256C71.832,357.645 154.355,440.168 256,440.168C357.645,440.168 440.168,357.645 440.168,256C440.168,154.355 357.645,71.832 256,71.832ZM256,114.552C334.067,114.552 397.448,177.933 397.448,256C397.448,334.067 334.067,397.448 256,397.448C177.933,397.448 114.552,334.067 114.552,256C114.552,177.933 177.933,114.552 256,114.552ZM256,139.384C191.638,139.384 139.384,191.638 139.384,256C139.384,320.362 191.638,372.616 256,372.616C320.362,372.616 372.616,320.362 372.616,256C372.616,191.638 320.362,139.384 256,139.384Z" style="fill:white;"/>
    </g>
    <g transform="matrix(0.707107,0.707107,-0.707107,0.707107,245.629101,-25.899903)">
        <path d="M251.188,108.522L290.145,147.478L245.623,192L290.145,236.522L251.188,275.478L206.667,230.957L162.145,275.478L123.188,236.522L167.71,192L123.188,147.478L162.145,108.522L206.667,153.043L251.188,108.522Z" style="fill:white;stroke:white;stroke-width:22.08px;"/>
    </g>
</svg>
