<?xml version="1.0" encoding="UTF-8" standalone="no"?>
<!DOCTYPE svg PUBLIC "-//W3C//DTD SVG 1.1//EN" "http://www.w3.org/Graphics/SVG/1.1/DTD/svg11.dtd">
<svg width="100%" height="100%" viewBox="0 0 532 524" version="1.1" xmlns="http://www.w3.org/2000/svg" xmlns:xlink="http://www.w3.org/1999/xlink" xml:space="preserve" xmlns:serif="http://www.serif.com/" style="fill-rule:evenodd;clip-rule:evenodd;stroke-linejoin:round;stroke-miterlimit:2;">
    <g transform="matrix(1,0,0,1,10,1.888906)">
        <g transform="matrix(1,0,0,1,-10,-3)">
            <path d="M531.999,355.5L531.999,356.5C531.93,356.971 531.037,357.016 530.967,357.487C530.198,362.712 530.968,362.722 530.968,423.5C530.968,506.378 529.918,506.389 530.967,513.513C531.037,513.984 531.93,514.029 531.999,514.5L531.999,515.5C528.451,521.832 528.833,522.439 525.534,523.582C523.9,524.149 524.02,524.148 522.5,524.999L521.5,524.999C521.029,524.93 520.984,524.037 520.513,523.967C513.389,522.918 513.378,523.968 430.5,523.968L16.5,523.968C11.494,523.967 11.499,523.965 11.487,523.967C10.68,524.106 11.296,524.862 10.5,524.999L9.5,524.999C7.98,524.148 8.1,524.149 6.466,523.582C3.165,522.438 3.549,521.829 0,515.5L0,514.5C0.161,513.719 0.869,514.306 1.033,513.513C1.76,509.981 0.104,509.006 0,508.5L0,507.5C0.138,507.026 0.905,506.922 1.043,506.448C1.323,505.488 1.087,504.448 1.18,503.452C1.35,501.632 4.356,495.303 4.84,494.78C34.35,462.9 54.723,453.179 93.472,448.239C103.587,446.949 102.204,441.289 114.603,436.755C117.692,435.626 118.36,433.855 119.477,433.455C138.465,426.65 138.56,426.928 144.491,426.18C148.499,425.674 164.237,408.447 174.781,399.839C193.16,384.836 193.752,385.629 195.304,384.274C202.573,377.93 212.846,375.068 216.332,372.286C220.481,368.975 223.895,371.252 223.209,366.54C219.955,344.213 224.653,342.723 221.091,336.706C220.171,335.152 210.47,336.107 208.482,335.558C205.457,334.723 205.42,335.382 202.481,334.559C196.586,332.908 192.475,332.214 190.641,331.217C168.3,319.069 169.088,303.304 167.76,298.413C165.872,291.462 175.011,285.815 161.419,238.531C157.884,226.232 157.829,226.259 157.178,213.508C156.945,208.936 146.253,193.283 154.415,167.469C156.645,160.414 144.595,157.992 149.056,134.437C151.294,122.619 159.35,118.425 158.757,114.445C158.181,110.581 158.137,110.674 158.181,101.499C158.212,94.884 159.078,95.039 160.05,88.441C161.813,76.479 164.883,68.321 165.055,67.435C167.062,57.097 177.531,53.284 179.167,44.435C181,34.527 197.39,21.581 198.251,21.057C215.243,10.719 216.535,10.925 228.479,7.438C236.397,5.126 246.588,7.448 259.481,3.442C262.926,2.372 263.078,3.719 266.587,2.758C284.712,-2.205 324.789,4.749 335.696,14.274C339.301,17.422 352.908,20.122 371.16,40.781C391.066,63.311 395.559,114.304 393.56,121.519C390.073,134.112 397.129,142.494 400.038,162.567C400.469,165.539 402.303,178.199 386.714,197.669C380.771,205.092 384.809,212.1 384.818,222.5C384.837,244.793 387.026,244.649 386.558,246.518C385.694,249.966 386.187,249.906 386.833,253.437C387.144,255.138 389.989,270.705 391.25,274.588C394.833,285.624 401.165,303.928 409.513,305.185C442.8,310.195 488.515,329.237 489.22,329.84C492.751,332.855 493.11,331.989 497.531,333.419C498.42,333.707 504.449,335.657 508.359,337.783C520.363,344.31 528.488,346.342 530.543,351.479C531.116,352.913 530.396,352.996 530.953,354.445C531.131,354.908 531.821,355.038 531.999,355.5Z" style="fill:rgb(254,254,254);fill-opacity:0.99;"/>
            <path d="M380.237,133.452C392.048,169.524 389.763,171.421 377.071,190.212C374.336,194.261 370.929,194.033 372.946,229.471C375.754,278.816 388.882,310.64 402.426,315.683C415.603,320.588 419.296,316.722 458.587,331.268C487.016,341.793 487.453,340.666 514.456,354.582C518.326,356.577 519.004,357.984 520.661,355.721C523.724,351.539 522.034,358.214 522.034,420.5C522.034,513.749 522.104,513.906 521.517,514.517C520.496,515.579 28.757,514.603 12.505,515.034C8.527,515.139 9.804,507.657 10.863,506.803C11.947,505.93 26.892,486.877 41.602,477.663C64.907,463.065 87.318,461.086 91.519,460.715C102.286,459.764 102.357,459.396 111.156,453.033C139.86,432.277 148.638,442.996 158.041,432.08C172.694,415.068 203.269,392.334 217.74,384.973C228.896,379.297 235.667,377.745 235.493,372.5C234.812,351.938 232.36,324.319 232.457,322.632C240.542,316.622 262.526,322.25 284.153,300.165C287.022,297.236 288.335,292.291 294.65,288.761C324.491,272.082 360.197,257.718 360.147,234.498C360.033,181.445 330.074,143.067 361.433,134.266C365.853,133.026 378.154,133.574 380.237,133.452Z" style="fill:rgb(128,128,125);"/>
            <path d="M169.811,107.458C170.06,103.504 172.126,70.705 184.058,60.023C194.749,50.451 189.967,41.046 203.822,31.982C230.187,14.736 247.328,19.502 262.565,15.779C288.234,9.508 317.512,17.904 323.616,21.287C353.414,37.799 358.836,44.93 361.06,47.853C381.103,74.212 382.291,105.363 380.237,133.452C378.154,133.574 365.853,133.026 361.433,134.266C330.074,143.067 360.033,181.445 360.147,234.498C360.197,257.718 324.491,272.082 294.65,288.761C288.335,292.291 287.022,297.236 284.153,300.165C262.526,322.25 240.542,316.622 232.457,322.632C227.105,321.632 227.127,322.316 218.458,323.05C208.722,323.874 178.959,322.801 180.507,293.5C183.118,244.089 169.267,241.849 169.362,210.471C180.632,202.083 188.407,192.45 230.578,185.834C266.9,180.136 276.24,186.817 273.879,211.528C273.624,214.199 273.494,216.986 278.599,214.714C299.221,205.537 376.298,133.663 304.257,89.906C294.042,83.701 307.327,80.509 308.077,65.501C308.486,57.311 299.737,54.511 298.611,54.151C277.978,47.547 272.185,43.255 256.535,47.612C245.07,50.803 194.92,53.641 188.023,63.152C173.198,83.595 175.672,101.678 169.811,107.458Z" style="fill:rgb(27,27,25);"/>
            <path d="M169.811,107.458C175.672,101.678 173.198,83.595 188.023,63.152C194.92,53.641 245.07,50.803 256.535,47.612C272.185,43.255 277.978,47.547 298.611,54.151C299.737,54.511 308.486,57.311 308.077,65.501C307.327,80.509 294.042,83.701 304.257,89.906C376.298,133.663 299.221,205.537 278.599,214.714C273.494,216.986 273.624,214.199 273.879,211.528C276.24,186.817 266.9,180.136 230.578,185.834C188.407,192.45 180.632,202.083 169.362,210.471C168.259,207.002 168.345,206.987 168.171,206.725C155.557,187.776 170.33,168.982 166.205,160.647C162.785,153.737 162.549,153.902 160.663,146.419C161.3,145.884 165.603,142.272 168.843,139.992C181.877,130.819 195.651,135.288 193.682,129.429C190.987,121.409 172.6,123.98 169.298,123.202C172.499,115.73 170.671,115.497 169.811,107.458Z" style="fill:rgb(127,128,125);"/>
            <path d="M252.443,113.056C235.527,115.759 235.821,116.749 219.561,120.869C213.358,122.441 222.09,104.552 242.427,101.008C257.372,98.404 267.523,95.85 285.081,110.944C290.008,115.179 288.313,116.594 287.5,116.409C272.315,112.957 272.398,111.433 252.443,113.056Z" style="fill:rgb(27,28,25);"/>
            <path d="M205.533,232.037C201.912,231.493 200.452,231.637 192.466,229.626C173.129,224.758 255.856,211.795 256.49,211.761C262.886,211.418 250.923,219.63 250.235,220.102C228.474,235.038 207.097,232.082 205.533,232.037Z" style="fill:rgb(200,200,196);"/>
            <path d="M521.5,524.999L10.5,524.999C11.296,524.862 10.68,524.106 11.487,523.967C11.499,523.965 11.494,523.967 16.5,523.968L430.5,523.968C513.378,523.968 513.389,522.918 520.513,523.967C520.984,524.037 521.029,524.93 521.5,524.999Z" style="fill:white;fill-opacity:0.26;"/>
            <path d="M169.298,123.202C172.6,123.98 190.987,121.409 193.682,129.429C195.651,135.288 181.877,130.819 168.843,139.992C165.603,142.272 161.3,145.884 160.663,146.419C160.344,144.463 158.653,134.077 169.298,123.202Z" style="fill:rgb(28,28,26);"/>
            <path d="M531.999,356.5L531.999,514.5C531.93,514.029 531.037,513.984 530.967,513.513C529.918,506.389 530.968,506.378 530.968,423.5C530.968,362.722 530.198,362.712 530.967,357.487C531.037,357.016 531.93,356.971 531.999,356.5Z" style="fill:white;fill-opacity:0.26;"/>
            <path d="M0,514.5L0,508.5C0.104,509.006 1.76,509.981 1.033,513.513C0.869,514.306 0.161,513.719 0,514.5Z" style="fill:white;fill-opacity:0.22;"/>
        </g>
    </g>
</svg>
